<mxfile host="app.diagrams.net" modified="2023-09-24T20:59:51.224Z" agent="Mozilla/5.0 (Windows NT 10.0; Win64; x64; rv:109.0) Gecko/20100101 Firefox/117.0" etag="SifV21oV7Pe7hiXjx-tB" version="21.8.2" type="device">
  <diagram name="Page-1" id="21oETci1MNOwZ-fDCxJo">
    <mxGraphModel dx="1050" dy="1774" grid="1" gridSize="10" guides="1" tooltips="1" connect="1" arrows="1" fold="1" page="1" pageScale="1" pageWidth="850" pageHeight="1100" math="0" shadow="0">
      <root>
        <mxCell id="0" />
        <mxCell id="1" parent="0" />
        <mxCell id="hsNMWeNObLcFFwpVBUTG-3" style="edgeStyle=orthogonalEdgeStyle;rounded=0;orthogonalLoop=1;jettySize=auto;html=1;" edge="1" parent="1" source="hsNMWeNObLcFFwpVBUTG-1" target="hsNMWeNObLcFFwpVBUTG-2">
          <mxGeometry relative="1" as="geometry" />
        </mxCell>
        <mxCell id="hsNMWeNObLcFFwpVBUTG-1" value="read line" style="rounded=1;whiteSpace=wrap;html=1;" vertex="1" parent="1">
          <mxGeometry x="90" y="110" width="120" height="50" as="geometry" />
        </mxCell>
        <mxCell id="hsNMWeNObLcFFwpVBUTG-2" value="assembly input" style="ellipse;whiteSpace=wrap;html=1;" vertex="1" parent="1">
          <mxGeometry x="90" y="-40" width="120" height="80" as="geometry" />
        </mxCell>
        <mxCell id="hsNMWeNObLcFFwpVBUTG-6" style="edgeStyle=orthogonalEdgeStyle;rounded=0;orthogonalLoop=1;jettySize=auto;html=1;exitX=0.5;exitY=0;exitDx=0;exitDy=0;entryX=0.5;entryY=1;entryDx=0;entryDy=0;" edge="1" parent="1" source="hsNMWeNObLcFFwpVBUTG-4" target="hsNMWeNObLcFFwpVBUTG-1">
          <mxGeometry relative="1" as="geometry" />
        </mxCell>
        <mxCell id="hsNMWeNObLcFFwpVBUTG-4" value="instruction parsing &lt;br&gt;(different for each instruction)" style="rounded=1;whiteSpace=wrap;html=1;" vertex="1" parent="1">
          <mxGeometry x="90" y="210" width="120" height="60" as="geometry" />
        </mxCell>
        <mxCell id="hsNMWeNObLcFFwpVBUTG-7" style="edgeStyle=orthogonalEdgeStyle;rounded=0;orthogonalLoop=1;jettySize=auto;html=1;exitX=0.5;exitY=0;exitDx=0;exitDy=0;entryX=0.5;entryY=1;entryDx=0;entryDy=0;" edge="1" parent="1" source="hsNMWeNObLcFFwpVBUTG-5" target="hsNMWeNObLcFFwpVBUTG-4">
          <mxGeometry relative="1" as="geometry" />
        </mxCell>
        <mxCell id="hsNMWeNObLcFFwpVBUTG-5" value="store" style="rounded=1;whiteSpace=wrap;html=1;" vertex="1" parent="1">
          <mxGeometry x="90" y="320" width="120" height="60" as="geometry" />
        </mxCell>
        <mxCell id="hsNMWeNObLcFFwpVBUTG-9" value="&lt;div style=&quot;font-size: 20px;&quot;&gt;Task 1 - Parsing&lt;/div&gt;" style="text;html=1;align=center;verticalAlign=middle;resizable=0;points=[];autosize=1;strokeColor=none;fillColor=none;fontSize=20;" vertex="1" parent="1">
          <mxGeometry x="65" y="-90" width="170" height="40" as="geometry" />
        </mxCell>
        <mxCell id="hsNMWeNObLcFFwpVBUTG-10" value="&lt;div style=&quot;font-size: 20px;&quot;&gt;Task 2 - Create Registers&lt;br&gt;&lt;/div&gt;" style="text;html=1;align=center;verticalAlign=middle;resizable=0;points=[];autosize=1;strokeColor=none;fillColor=none;fontSize=20;" vertex="1" parent="1">
          <mxGeometry x="260" y="-80" width="250" height="40" as="geometry" />
        </mxCell>
        <mxCell id="hsNMWeNObLcFFwpVBUTG-11" value="dict of registers" style="rounded=1;whiteSpace=wrap;html=1;" vertex="1" parent="1">
          <mxGeometry x="325" y="-20" width="120" height="60" as="geometry" />
        </mxCell>
        <mxCell id="hsNMWeNObLcFFwpVBUTG-12" value="&lt;div style=&quot;font-size: 20px;&quot;&gt;Task 3 - Create Stack&lt;br&gt;&lt;/div&gt;" style="text;html=1;align=center;verticalAlign=middle;resizable=0;points=[];autosize=1;strokeColor=none;fillColor=none;fontSize=20;" vertex="1" parent="1">
          <mxGeometry x="540" y="-80" width="210" height="40" as="geometry" />
        </mxCell>
        <mxCell id="hsNMWeNObLcFFwpVBUTG-13" value="256B&lt;br&gt;(create in structure, no fill)" style="ellipse;whiteSpace=wrap;html=1;" vertex="1" parent="1">
          <mxGeometry x="585" y="-20" width="120" height="80" as="geometry" />
        </mxCell>
        <mxCell id="hsNMWeNObLcFFwpVBUTG-14" value="&lt;div&gt;? - just create memory space or populate it?&lt;/div&gt;" style="rounded=1;whiteSpace=wrap;html=1;" vertex="1" parent="1">
          <mxGeometry x="585" y="90" width="120" height="60" as="geometry" />
        </mxCell>
        <mxCell id="hsNMWeNObLcFFwpVBUTG-15" value="&lt;div style=&quot;font-size: 20px;&quot;&gt;Task 4 - Update/Store Addr&lt;br&gt;&lt;/div&gt;" style="text;html=1;align=center;verticalAlign=middle;resizable=0;points=[];autosize=1;strokeColor=none;fillColor=none;fontSize=20;" vertex="1" parent="1">
          <mxGeometry x="790" y="-80" width="260" height="40" as="geometry" />
        </mxCell>
        <mxCell id="hsNMWeNObLcFFwpVBUTG-16" value="? - clarify instructions&lt;br&gt;what address are we storing?" style="ellipse;whiteSpace=wrap;html=1;" vertex="1" parent="1">
          <mxGeometry x="860" y="-30" width="120" height="80" as="geometry" />
        </mxCell>
        <mxCell id="hsNMWeNObLcFFwpVBUTG-17" value="&lt;div style=&quot;font-size: 20px;&quot;&gt;Task 5 - Implement Instructions&lt;br&gt;&lt;/div&gt;" style="text;html=1;align=center;verticalAlign=middle;resizable=0;points=[];autosize=1;strokeColor=none;fillColor=none;fontSize=20;" vertex="1" parent="1">
          <mxGeometry x="1080" y="-80" width="300" height="40" as="geometry" />
        </mxCell>
        <mxCell id="hsNMWeNObLcFFwpVBUTG-18" value="16 instructions" style="ellipse;whiteSpace=wrap;html=1;" vertex="1" parent="1">
          <mxGeometry x="1170" y="-20" width="120" height="80" as="geometry" />
        </mxCell>
        <mxCell id="hsNMWeNObLcFFwpVBUTG-19" value="&lt;div style=&quot;font-size: 20px;&quot;&gt;Task 6 - Make it 32-bit&lt;br&gt;&lt;/div&gt;" style="text;html=1;align=center;verticalAlign=middle;resizable=0;points=[];autosize=1;strokeColor=none;fillColor=none;fontSize=20;" vertex="1" parent="1">
          <mxGeometry x="1440" y="-80" width="220" height="40" as="geometry" />
        </mxCell>
        <mxCell id="hsNMWeNObLcFFwpVBUTG-20" value="&lt;div&gt;use existing registers, just make it 32-bit&lt;/div&gt;" style="ellipse;whiteSpace=wrap;html=1;" vertex="1" parent="1">
          <mxGeometry x="1490" y="-30" width="120" height="80" as="geometry" />
        </mxCell>
        <mxCell id="hsNMWeNObLcFFwpVBUTG-23" value="&lt;h1 style=&quot;font-size: 20px;&quot;&gt;&lt;font style=&quot;font-size: 20px;&quot;&gt;Assignments:&lt;/font&gt;&lt;/h1&gt;&lt;p style=&quot;font-size: 20px;&quot;&gt;&lt;font style=&quot;font-size: 20px;&quot;&gt;Omkar:&lt;/font&gt;&lt;/p&gt;&lt;p style=&quot;font-size: 20px;&quot;&gt;&lt;font style=&quot;font-size: 20px;&quot;&gt;Task1/5 - SUB,&lt;span&gt;&lt;span&gt;·&lt;/span&gt;&lt;/span&gt;EOR,&lt;span&gt;&lt;span&gt;·&lt;/span&gt;&lt;/span&gt;ADD,&lt;span&gt;&lt;span&gt;·&lt;/span&gt;&lt;/span&gt;AND,&lt;span&gt;&lt;span&gt;·&lt;/span&gt;&lt;/span&gt;MUL,&lt;span&gt;&lt;span&gt;·&lt;/span&gt;&lt;/span&gt;MOV,&lt;span&gt;&lt;span&gt;·&lt;/span&gt;&lt;/span&gt;STR,&lt;span&gt;&lt;span&gt;·&lt;/span&gt;&lt;/span&gt;STRB&lt;/font&gt;&lt;/p&gt;&lt;p style=&quot;font-size: 20px;&quot;&gt;&lt;font style=&quot;font-size: 20px;&quot;&gt;Task 3&lt;br&gt;&lt;/font&gt;&lt;/p&gt;&lt;p style=&quot;font-size: 20px;&quot;&gt;&lt;font style=&quot;font-size: 20px;&quot;&gt;&lt;br&gt;&lt;/font&gt;&lt;/p&gt;&lt;p style=&quot;font-size: 20px;&quot;&gt;&lt;font style=&quot;font-size: 20px;&quot;&gt;Will:&lt;/font&gt;&lt;/p&gt;&lt;p style=&quot;font-size: 20px;&quot;&gt;&lt;font style=&quot;font-size: 20px;&quot;&gt;Task 1/5 - LDR,&lt;span&gt;&lt;span&gt;·&lt;/span&gt;&lt;/span&gt;LDRB,&lt;span&gt;&lt;span&gt;·&lt;/span&gt;&lt;/span&gt;NOP,&lt;span&gt;&lt;span&gt;·&lt;/span&gt;&lt;/span&gt;B,&lt;span&gt;&lt;span&gt;·&lt;/span&gt;&lt;/span&gt;B.GT,&lt;span&gt;&lt;span&gt;·&lt;/span&gt;&lt;/span&gt;B.LE,&lt;span&gt;&lt;span&gt;·&lt;/span&gt;&lt;/span&gt;CMP,&lt;span&gt;&lt;span&gt;·&lt;/span&gt;&lt;/span&gt;RET&lt;/font&gt;&lt;/p&gt;&lt;p style=&quot;font-size: 20px;&quot;&gt;&lt;font style=&quot;font-size: 20px;&quot;&gt;Task 2&lt;/font&gt;&lt;/p&gt;&lt;p style=&quot;font-size: 20px;&quot;&gt;&lt;font style=&quot;font-size: 20px;&quot;&gt;&lt;br&gt;&lt;/font&gt;&lt;/p&gt;&lt;p style=&quot;font-size: 20px;&quot;&gt;&lt;font style=&quot;font-size: 20px;&quot;&gt;Task 4 ???&lt;/font&gt;&lt;/p&gt;&lt;p style=&quot;font-size: 20px;&quot;&gt;&lt;font style=&quot;font-size: 20px;&quot;&gt;Task 6 ???&lt;font style=&quot;font-size: 20px;&quot;&gt;&lt;br&gt;&lt;/font&gt;&lt;/font&gt;&lt;/p&gt;" style="text;html=1;strokeColor=none;fillColor=none;spacing=5;spacingTop=-20;whiteSpace=wrap;overflow=hidden;rounded=0;" vertex="1" parent="1">
          <mxGeometry x="60" y="480" width="590" height="540" as="geometry" />
        </mxCell>
      </root>
    </mxGraphModel>
  </diagram>
</mxfile>
